<?xml version="1.0" encoding="UTF-8"?>
<svg id="Camada_2" data-name="Camada 2" xmlns="http://www.w3.org/2000/svg" viewBox="0 0 289.75 51.03">
  <defs>
    <style>
      .cls-1 {
        fill: #010101;
      }

      .cls-1, .cls-2 {
        stroke-width: 0px;
      }

      .cls-2 {
        fill: #fff;
      }
    </style>
  </defs>
  <g id="Camada_6" data-name="Camada 6">
    <rect class="cls-1" width="34.87" height="34.87"/>
    <rect class="cls-1" x="42.44" width="34.87" height="34.87"/>
    <rect class="cls-1" x="84.89" width="34.87" height="34.87"/>
    <rect class="cls-1" x="127.33" width="34.87" height="34.87"/>
    <rect class="cls-1" x="169.77" width="34.87" height="34.87"/>
    <rect class="cls-1" x="212.22" width="34.87" height="34.87"/>
    <rect class="cls-1" x="254.66" width="34.87" height="34.87"/>
    <path class="cls-2" d="m7.86,29.58c.19-.25.5-.72.94-1.4.44-.68.97-1.5,1.58-2.46.62-.96,1.29-2,2.02-3.12.73-1.13,1.48-2.28,2.24-3.46.76-1.18,1.51-2.33,2.24-3.46.73-1.13,1.41-2.16,2.02-3.09.62-.93,1.15-1.74,1.6-2.41.45-.67.77-1.13.96-1.39l.41.92h-10c-.42,0-.83-.08-1.24-.24-.41-.16-.75-.39-1.02-.69-.27-.3-.41-.66-.41-1.08v-2.42h3.1v.45c0,.38.07.6.22.65.15.05.4.08.75.08h13.45l-13.42,20.24-.19-.41h13.89v3.28H7.86Z"/>
    <path class="cls-2" d="m49.77,29.49l10.04-24.1h.22l9.97,24.1h-3.83l-7.28-18.74,2.38-1.63-8.19,20.37h-3.32Zm6.12-8.67h8.12l1.1,2.9h-10.22l1-2.9Z"/>
    <path class="cls-2" d="m112.22,29.77l-17.53-17.69.97.35.06,16.54h-3.36V5.1h.13l17.28,17.69-.75-.19-.06-16.74h3.32v23.91h-.06Z"/>
    <path class="cls-2" d="m134.65,29.49l10.04-24.1h.22l9.97,24.1h-3.83l-7.28-18.74,2.38-1.63-8.19,20.37h-3.32Zm6.12-8.67h8.12l1.1,2.9h-10.22l1-2.9Z"/>
    <path class="cls-2" d="m185.25,5.88c1.19,0,2.29.16,3.31.48,1.01.32,1.89.79,2.62,1.4s1.3,1.38,1.69,2.28c.4.9.6,1.94.6,3.11,0,.91-.13,1.82-.39,2.73-.26.9-.7,1.72-1.3,2.44-.61.72-1.41,1.31-2.4,1.75-.99.45-2.22.67-3.69.67h-3.32v8.26h-3.32V5.88h6.21Zm.41,11.54c.84,0,1.54-.13,2.12-.4s1.02-.61,1.35-1.02.55-.86.69-1.34c.14-.48.2-.93.2-1.35s-.07-.88-.2-1.36c-.14-.48-.37-.93-.69-1.37s-.76-.79-1.3-1.05c-.54-.26-1.21-.4-2.01-.4h-3.45v8.29h3.29Zm3.83,2.04l5.9,9.53h-3.89l-5.99-9.47,3.98-.06Z"/>
    <path class="cls-2" d="m220.31,28.99V5.88h6.3c2.26,0,4.18.35,5.77,1.04s2.87,1.62,3.84,2.77c.97,1.16,1.68,2.44,2.12,3.84s.66,2.81.66,4.21c0,1.72-.3,3.27-.89,4.65-.6,1.38-1.42,2.57-2.46,3.55-1.05.99-2.25,1.74-3.61,2.26-1.36.52-2.79.78-4.3.78h-7.43Zm3.32-3.28h3.45c1.23,0,2.37-.18,3.4-.54s1.93-.89,2.7-1.59c.76-.7,1.35-1.56,1.76-2.58.41-1.02.61-2.18.61-3.48,0-1.44-.23-2.69-.67-3.75s-1.07-1.92-1.85-2.61c-.78-.69-1.65-1.2-2.6-1.53-.95-.33-1.92-.49-2.9-.49h-3.89v16.58Z"/>
    <path class="cls-2" d="m272.13,29c-1.36,0-2.62-.26-3.77-.78-1.15-.52-2.16-1.27-3.01-2.26-.85-.99-1.51-2.2-1.97-3.64-.46-1.44-.7-3.07-.7-4.88,0-2,.23-3.72.68-5.16.45-1.44,1.09-2.63,1.92-3.59.83-.95,1.82-1.66,2.97-2.12,1.15-.46,2.44-.69,3.87-.69s2.6.26,3.74.78c1.13.52,2.12,1.27,2.97,2.26s1.5,2.2,1.97,3.64.7,3.07.7,4.88-.23,3.54-.7,4.97c-.46,1.43-1.12,2.63-1.97,3.61-.85.98-1.84,1.72-2.97,2.23-1.13.51-2.38.76-3.74.76Zm-.07-3.56c1.27,0,2.33-.34,3.18-1.02.85-.68,1.48-1.63,1.88-2.87.41-1.23.62-2.63.65-4.19-.02-1.56-.24-2.94-.65-4.13-.41-1.18-1.04-2.11-1.88-2.78-.85-.67-1.91-1-3.18-1s-2.29.34-3.12,1.02-1.46,1.62-1.87,2.81c-.41,1.2-.61,2.57-.61,4.11s.2,2.99.61,4.19c.41,1.21,1.03,2.15,1.87,2.83s1.88,1.02,3.12,1.02Z"/>
    <g>
      <path class="cls-1" d="m212.22,50.74v-8.6h.01l4.45,6.27-.53-.12,4.45-6.16h.01v8.6h-1.22v-5.83l.07.62-3.08,4.35h-.02l-3.15-4.35.22-.57v5.78h-1.19Z"/>
      <path class="cls-1" d="m222.1,50.74l3.7-8.67h.08l3.67,8.67h-1.41l-2.68-6.74.88-.58-3.01,7.33h-1.22Zm2.25-3.12h2.99l.4,1.04h-3.77l.37-1.04Z"/>
      <path class="cls-1" d="m233.35,42.43c.44,0,.85.06,1.22.17.37.12.7.28.96.5s.48.5.62.82c.15.33.22.7.22,1.12,0,.33-.05.66-.14.98-.1.33-.26.62-.48.88-.22.26-.52.47-.88.63-.37.16-.82.24-1.36.24h-1.22v2.97h-1.22v-8.32h2.29Zm.15,4.15c.31,0,.57-.05.78-.14.21-.1.38-.22.5-.37s.2-.31.25-.48c.05-.17.08-.33.08-.49s-.02-.32-.08-.49c-.05-.17-.13-.34-.25-.49-.12-.16-.28-.28-.48-.38s-.45-.14-.74-.14h-1.27v2.98h1.21Zm1.41.73l2.17,3.43h-1.43l-2.21-3.41,1.47-.02Z"/>
      <path class="cls-1" d="m244.71,50.1c-.13.09-.32.2-.56.32-.24.12-.53.22-.85.3-.33.08-.69.12-1.08.11-.66,0-1.24-.12-1.76-.34-.52-.22-.96-.53-1.32-.91s-.64-.83-.83-1.33c-.19-.5-.29-1.03-.29-1.6,0-.63.1-1.2.29-1.73.2-.53.48-.98.85-1.37.37-.38.81-.68,1.32-.89.51-.21,1.06-.32,1.66-.32.52,0,.98.07,1.4.2s.77.29,1.06.48l-.51,1.15c-.22-.15-.5-.3-.82-.44-.32-.14-.69-.21-1.1-.21-.38,0-.75.08-1.1.23-.35.15-.66.37-.92.65-.27.28-.48.61-.63.99-.15.38-.23.78-.23,1.22s.07.83.21,1.21c.14.38.34.71.6.98s.57.49.93.64c.36.15.76.23,1.22.23s.81-.06,1.14-.19c.33-.13.6-.28.8-.45l.53,1.09Z"/>
      <path class="cls-1" d="m246.54,42.43h5.49v1.17h-4.26v2.37h3.8v1.18h-3.8v2.41h4.42v1.18h-5.65v-8.32Z"/>
      <path class="cls-1" d="m261.42,51.03l-6.46-6.37.36.13.02,5.95h-1.24v-8.59h.05l6.37,6.37-.28-.07-.02-6.02h1.22v8.6h-.02Z"/>
      <path class="cls-1" d="m262.95,50.74l3.7-8.67h.08l3.67,8.67h-1.41l-2.68-6.74.88-.58-3.01,7.33h-1.22Zm2.25-3.12h2.99l.4,1.04h-3.77l.37-1.04Z"/>
      <path class="cls-1" d="m274.2,42.43c.44,0,.84.06,1.22.17.37.12.69.28.96.5.27.22.48.5.62.82s.22.7.22,1.12c0,.33-.05.66-.14.98s-.26.62-.48.88c-.22.26-.52.47-.88.63-.37.16-.82.24-1.36.24h-1.22v2.97h-1.22v-8.32h2.29Zm.15,4.15c.31,0,.57-.05.78-.14s.38-.22.5-.37c.12-.15.2-.31.25-.48s.08-.33.08-.49-.03-.32-.08-.49c-.05-.17-.13-.34-.25-.49-.12-.16-.28-.28-.48-.38s-.45-.14-.74-.14h-1.27v2.98h1.21Zm1.41.73l2.17,3.43h-1.43l-2.21-3.41,1.47-.02Z"/>
      <path class="cls-1" d="m279.58,42.43h1.22v8.32h-1.22v-8.32Z"/>
      <path class="cls-1" d="m282.3,50.74l3.7-8.67h.08l3.67,8.67h-1.41l-2.68-6.74.88-.58-3.01,7.33h-1.22Zm2.25-3.12h2.99l.4,1.04h-3.77l.37-1.04Z"/>
    </g>
  </g>
</svg>